<svg width="20" height="22" viewBox="0 0 20 22" fill="none" xmlns="http://www.w3.org/2000/svg">
<path d="M13.6255 9.5V5C13.6255 2.92893 11.9466 1.25 9.87548 1.25C7.80442 1.25 6.12548 2.92893 6.12548 5V9.5M17.4815 7.50723L18.7447 19.5072C18.8146 20.1715 18.2938 20.75 17.6258 20.75H2.12512C1.45721 20.75 0.936382 20.1715 1.0063 19.5072L2.26946 7.50723C2.32973 6.93466 2.81255 6.5 3.38828 6.5H16.3627C16.9384 6.5 17.4212 6.93466 17.4815 7.50723ZM6.50048 9.5C6.50048 9.70711 6.33259 9.875 6.12548 9.875C5.91838 9.875 5.75048 9.70711 5.75048 9.5C5.75048 9.29289 5.91838 9.125 6.12548 9.125C6.33259 9.125 6.50048 9.29289 6.50048 9.5ZM14.0005 9.5C14.0005 9.70711 13.8326 9.875 13.6255 9.875C13.4184 9.875 13.2505 9.70711 13.2505 9.5C13.2505 9.29289 13.4184 9.125 13.6255 9.125C13.8326 9.125 14.0005 9.29289 14.0005 9.5Z" stroke="black" stroke-width="1.5" stroke-linecap="round" stroke-linejoin="round"/>
</svg>
