<svg width="36" height="35" viewBox="0 0 36 35" fill="none" xmlns="http://www.w3.org/2000/svg">
<g clip-path="url(#clip0_176_435)">
<path d="M34.6636 17.5C34.6636 8.13477 27.0757 0.546875 17.7104 0.546875C8.34521 0.546875 0.757324 8.13477 0.757324 17.5C0.757324 25.9615 6.95684 32.9752 15.0615 34.248V22.4007H10.7549V17.5H15.0615V13.7648C15.0615 9.51631 17.5908 7.16953 21.4647 7.16953C23.32 7.16953 25.2601 7.50039 25.2601 7.50039V11.6703H23.1218C21.0163 11.6703 20.3594 12.9773 20.3594 14.3179V17.5H25.0611L24.3092 22.4007H20.3594V34.248C28.4641 32.9752 34.6636 25.9615 34.6636 17.5Z" fill="#FFF8FB"/>
</g>
<defs>
<clipPath id="clip0_176_435">
<rect width="35" height="35" fill="white" transform="translate(0.210449)"/>
</clipPath>
</defs>
</svg>
