<svg width="36" height="40" viewBox="0 0 36 40" fill="none" xmlns="http://www.w3.org/2000/svg">
<g clip-path="url(#clip0_176_433)">
<path d="M17.7183 11.0156C12.7495 11.0156 8.7417 15.0234 8.7417 19.9922C8.7417 24.9609 12.7495 28.9687 17.7183 28.9687C22.687 28.9687 26.6948 24.9609 26.6948 19.9922C26.6948 15.0234 22.687 11.0156 17.7183 11.0156ZM17.7183 25.8281C14.5073 25.8281 11.8823 23.2109 11.8823 19.9922C11.8823 16.7734 14.4995 14.1562 17.7183 14.1562C20.937 14.1562 23.5542 16.7734 23.5542 19.9922C23.5542 23.2109 20.9292 25.8281 17.7183 25.8281ZM29.1558 10.6484C29.1558 11.8125 28.2183 12.7422 27.062 12.7422C25.898 12.7422 24.9683 11.8047 24.9683 10.6484C24.9683 9.49219 25.9058 8.55469 27.062 8.55469C28.2183 8.55469 29.1558 9.49219 29.1558 10.6484ZM35.1011 12.7734C34.9683 9.96875 34.3276 7.48438 32.2729 5.4375C30.2261 3.39062 27.7417 2.75 24.937 2.60937C22.0464 2.44531 13.3823 2.44531 10.4917 2.60937C7.69482 2.74219 5.21045 3.38281 3.15576 5.42969C1.10107 7.47656 0.468262 9.96094 0.327637 12.7656C0.163574 15.6562 0.163574 24.3203 0.327637 27.2109C0.460449 30.0156 1.10107 32.5 3.15576 34.5469C5.21045 36.5938 7.68701 37.2344 10.4917 37.375C13.3823 37.5391 22.0464 37.5391 24.937 37.375C27.7417 37.2422 30.2261 36.6016 32.2729 34.5469C34.3198 32.5 34.9604 30.0156 35.1011 27.2109C35.2651 24.3203 35.2651 15.6641 35.1011 12.7734ZM31.3667 30.3125C30.7573 31.8438 29.5776 33.0234 28.0386 33.6406C25.7339 34.5547 20.2651 34.3438 17.7183 34.3438C15.1714 34.3438 9.69482 34.5469 7.39795 33.6406C5.8667 33.0312 4.68701 31.8516 4.06982 30.3125C3.15576 28.0078 3.3667 22.5391 3.3667 19.9922C3.3667 17.4453 3.16357 11.9688 4.06982 9.67188C4.6792 8.14062 5.85889 6.96094 7.39795 6.34375C9.70264 5.42969 15.1714 5.64062 17.7183 5.64062C20.2651 5.64062 25.7417 5.4375 28.0386 6.34375C29.5698 6.95312 30.7495 8.13281 31.3667 9.67188C32.2808 11.9766 32.0698 17.4453 32.0698 19.9922C32.0698 22.5391 32.2808 28.0156 31.3667 30.3125Z" fill="#FFF8FB"/>
</g>
<defs>
<clipPath id="clip0_176_433">
<rect width="35" height="40" fill="white" transform="translate(0.210449)"/>
</clipPath>
</defs>
</svg>
