<svg width="36" height="35" viewBox="0 0 36 35" fill="none" xmlns="http://www.w3.org/2000/svg">
<g clip-path="url(#clip0_176_437)">
<path d="M31.6127 10.3712C31.6349 10.6821 31.6349 10.9931 31.6349 11.304C31.6349 20.7868 24.4173 31.7132 11.2257 31.7132C7.16157 31.7132 3.38622 30.5361 0.210449 28.4931C0.787881 28.5597 1.34303 28.5819 1.94268 28.5819C5.29604 28.5819 8.38302 27.4493 10.8481 25.5172C7.69457 25.4505 5.0518 23.3852 4.14125 20.5425C4.58545 20.6091 5.02958 20.6536 5.496 20.6536C6.14001 20.6536 6.78409 20.5647 7.38367 20.4093C4.09688 19.743 1.63171 16.856 1.63171 13.3693V13.2805C2.58662 13.8135 3.69712 14.1466 4.87406 14.191C2.94195 12.9029 1.67614 10.7043 1.67614 8.21701C1.67614 6.88455 2.03141 5.66311 2.65327 4.59711C6.18437 8.94989 11.4921 11.7925 17.4438 12.1034C17.3328 11.5704 17.2662 11.0153 17.2662 10.4601C17.2662 6.507 20.4642 3.28687 24.4394 3.28687C26.5047 3.28687 28.3702 4.15298 29.6805 5.55209C31.3017 5.24119 32.8562 4.64154 34.2332 3.81986C33.7001 5.48551 32.5675 6.88462 31.0796 7.77288C32.5232 7.6175 33.9223 7.21767 35.2103 6.66252C34.2333 8.08378 33.0118 9.34959 31.6127 10.3712Z" fill="#FFF8FB"/>
</g>
<defs>
<clipPath id="clip0_176_437">
<rect width="35" height="35" fill="white" transform="translate(0.210449)"/>
</clipPath>
</defs>
</svg>
